<?xml version="1.0" standalone="no"?>
<!DOCTYPE svg PUBLIC "-//W3C//DTD SVG 20010904//EN"
 "http://www.w3.org/TR/2001/REC-SVG-20010904/DTD/svg10.dtd">
<svg version="1.0" xmlns="http://www.w3.org/2000/svg"
 width="16.000000pt" height="16.000000pt" viewBox="0 0 16.000000 16.000000"
 preserveAspectRatio="xMidYMid meet">
<metadata>
Created by potrace 1.11, written by Peter Selinger 2001-2013
</metadata>
<g transform="translate(0.000000,16.000000) scale(0.008333,-0.008333)"
fill="#000000" stroke="none">
<path d="M885 1591 c-92 -24 -173 -90 -215 -176 -34 -69 -35 -197 -2 -267 28
-60 94 -126 157 -158 72 -35 198 -35 270 0 64 31 124 91 155 155 34 72 34 198
0 270 -30 62 -97 129 -157 156 -49 22 -159 33 -208 20z m126 -152 c144 -49
154 -247 15 -310 -52 -23 -80 -23 -131 0 -54 25 -81 57 -96 112 -11 40 -10 53
4 91 35 92 121 136 208 107z"/>
<path d="M780 860 c-181 -35 -316 -91 -387 -160 -64 -63 -71 -85 -72 -242 l-2
-138 641 0 640 0 0 128 c0 70 -5 143 -10 163 -25 89 -195 195 -375 235 -5 1
-32 8 -60 14 -81 19 -278 20 -375 0z m400 -163 c113 -29 193 -63 238 -102 30
-25 33 -32 30 -74 l-3 -46 -487 -3 -488 -2 0 43 c0 52 18 79 74 112 68 40 216
85 321 98 77 9 225 -3 315 -26z"/>
</g>
</svg>
